ply
format ascii 1.0
element vertex 49
property float x
property float y
property float z
end_header
-0.002856 -0.011180 -0.043512
-0.028226 -0.008570 0.006806
-0.016385 -0.014262 -0.001238
-0.044578 -0.010417 -0.012307
-0.015920 -0.014319 -0.001565
-0.043349 0.000547 -0.037033
-0.002373 0.005610 -0.029083
-0.003010 0.004792 -0.031375
-0.003846 0.004870 -0.027675
0.000095 -0.018086 -0.045852
0.000331 -0.017128 -0.046346
0.005083 -0.016183 -0.015416
-0.045462 -0.007671 -0.011482
-0.044819 -0.007268 -0.012261
-0.044205 -0.007104 -0.012934
0.004649 -0.014988 -0.018152
0.003867 -0.015202 -0.014670
-0.000583 -0.020184 -0.044618
-0.002976 0.006644 -0.035274
0.003324 -0.015251 -0.014551
-0.028209 -0.010547 0.006191
0.001702 -0.012682 -0.047861
-0.007119 -0.012256 -0.004516
-0.007752 -0.010491 -0.003884
0.000817 -0.012972 -0.047212
0.001211 -0.012724 -0.047509
-0.007860 -0.004561 -0.025788
0.004829 -0.018022 -0.024041
0.002393 -0.013367 -0.048328
-0.002102 -0.004859 -0.030518
-0.009214 -0.014119 -0.003029
-0.028553 -0.012042 0.006118
-0.004003 0.002280 -0.027595
-0.030629 -0.008318 0.008864
-0.002059 -0.013277 -0.044921
-0.002117 -0.006938 -0.025539
-0.002982 -0.005119 -0.027345
0.005403 -0.010481 -0.015051
-0.004292 -0.004933 -0.026467
-0.016523 -0.024789 -0.018482
0.004764 -0.014140 -0.033307
0.003622 -0.009889 -0.022640
-0.001014 -0.007307 -0.026137
-0.003524 0.004551 -0.032934
-0.030516 -0.020963 0.010328
0.003529 -0.009588 -0.013842
0.002296 -0.009921 -0.013242
-0.031300 -0.011501 0.009991
-0.033727 -0.019909 0.015873
