ply
format ascii 1.0
element vertex 39
property float x
property float y
property float z
end_header
-0.019226 0.056150 -0.025832
-0.019363 0.055204 -0.025864
-0.052768 0.013887 -0.048622
-0.048774 0.024501 -0.049352
-0.019718 0.053856 -0.026422
-0.053508 0.008139 -0.045340
-0.017330 0.058604 -0.026877
-0.017520 0.059247 -0.026782
-0.054851 0.008012 -0.045320
-0.052537 0.008299 -0.045829
0.002375 -0.000027 -0.033862
-0.025043 -0.011959 -0.006367
-0.058172 -0.008774 -0.046241
-0.014824 -0.013633 -0.000331
-0.010769 -0.011609 0.001364
0.001580 -0.003105 -0.030244
0.005707 -0.017037 -0.038400
0.005323 -0.017570 -0.038339
-0.027581 -0.014967 -0.005028
-0.050197 0.007456 -0.046719
-0.049805 0.006596 -0.046445
-0.057661 -0.000433 -0.044398
-0.014499 -0.016093 -0.000604
-0.003056 0.024024 -0.011721
-0.017307 0.053928 -0.027773
0.007863 -0.012185 -0.038592
0.004275 -0.008688 -0.036275
0.007470 -0.012409 -0.038365
0.008482 -0.011936 -0.039095
-0.005963 -0.011546 -0.003856
-0.010337 -0.014099 -0.001729
-0.009885 0.024409 -0.008703
-0.007643 -0.026225 -0.023953
-0.009675 -0.014125 -0.001866
-0.021562 -0.016850 -0.000137
-0.009987 0.027739 -0.010335
0.002181 0.000027 -0.033623
-0.039679 -0.018044 -0.001623
-0.008148 0.026090 -0.008701
